<svg width="617" height="159" viewBox="0 0 617 159" fill="none" xmlns="http://www.w3.org/2000/svg">
<path d="M18 33C13.0667 33 8.93333 31.4667 5.6 28.4C2.4 25.2 0.8 21.2667 0.8 16.6C0.8 11.9333 2.4 8.06666 5.6 4.99999C8.93333 1.79999 13.0667 0.199992 18 0.199992C22.9333 0.199992 27 1.79999 30.2 4.99999C33.5333 8.06666 35.2 11.9333 35.2 16.6C35.2 21.2667 33.5333 25.2 30.2 28.4C27 31.4667 22.9333 33 18 33ZM31.8 46.2V157H3.8V46.2H31.8ZM154.464 17.4V40H117.264V157H89.2641V40H52.0641V17.4H154.464ZM277.894 99.2C277.894 103.2 277.627 106.8 277.094 110H196.094C196.76 118 199.56 124.267 204.494 128.8C209.427 133.333 215.494 135.6 222.694 135.6C233.094 135.6 240.494 131.133 244.894 122.2H275.094C271.894 132.867 265.76 141.667 256.694 148.6C247.627 155.4 236.494 158.8 223.294 158.8C212.627 158.8 203.027 156.467 194.494 151.8C186.094 147 179.494 140.267 174.694 131.6C170.027 122.933 167.694 112.933 167.694 101.6C167.694 90.1333 170.027 80.0667 174.694 71.4C179.36 62.7333 185.894 56.0667 194.294 51.4C202.694 46.7333 212.36 44.4 223.294 44.4C233.827 44.4 243.227 46.6667 251.494 51.2C259.894 55.7333 266.36 62.2 270.894 70.6C275.56 78.8667 277.894 88.4 277.894 99.2ZM248.894 91.2C248.76 84 246.16 78.2667 241.094 74C236.027 69.6 229.827 67.4 222.494 67.4C215.56 67.4 209.694 69.5333 204.894 73.8C200.227 77.9333 197.36 83.7333 196.294 91.2H248.894ZM291.131 101.2C291.131 90 293.331 80.0667 297.731 71.4C302.265 62.7333 308.331 56.0667 315.931 51.4C323.665 46.7333 332.265 44.4 341.731 44.4C349.998 44.4 357.198 46.0667 363.331 49.4C369.598 52.7333 374.598 56.9333 378.331 62V46.2H406.531V157H378.331V140.8C374.731 146 369.731 150.333 363.331 153.8C357.065 157.133 349.798 158.8 341.531 158.8C332.198 158.8 323.665 156.4 315.931 151.6C308.331 146.8 302.265 140.067 297.731 131.4C293.331 122.6 291.131 112.533 291.131 101.2ZM378.331 101.6C378.331 94.8 376.998 89 374.331 84.2C371.665 79.2667 368.065 75.5333 363.531 73C358.998 70.3333 354.131 69 348.931 69C343.731 69 338.931 70.2667 334.531 72.8C330.131 75.3333 326.531 79.0667 323.731 84C321.065 88.8 319.731 94.5333 319.731 101.2C319.731 107.867 321.065 113.733 323.731 118.8C326.531 123.733 330.131 127.533 334.531 130.2C339.065 132.867 343.865 134.2 348.931 134.2C354.131 134.2 358.998 132.933 363.531 130.4C368.065 127.733 371.665 124 374.331 119.2C376.998 114.267 378.331 108.4 378.331 101.6ZM571.478 44.6C585.078 44.6 596.011 48.8 604.278 57.2C612.678 65.4667 616.878 77.0667 616.878 92V157H588.878V95.8C588.878 87.1333 586.678 80.5333 582.278 76C577.878 71.3333 571.878 69 564.278 69C556.678 69 550.611 71.3333 546.078 76C541.678 80.5333 539.478 87.1333 539.478 95.8V157H511.478V95.8C511.478 87.1333 509.278 80.5333 504.878 76C500.478 71.3333 494.478 69 486.878 69C479.145 69 473.011 71.3333 468.478 76C464.078 80.5333 461.878 87.1333 461.878 95.8V157H433.878V46.2H461.878V59.6C465.478 54.9333 470.078 51.2667 475.678 48.6C481.411 45.9333 487.678 44.6 494.478 44.6C503.145 44.6 510.878 46.4667 517.678 50.2C524.478 53.8 529.745 59 533.478 65.8C537.078 59.4 542.278 54.2667 549.078 50.4C556.011 46.5333 563.478 44.6 571.478 44.6Z" fill="url(#paint0_linear_584_292)" fill-opacity="0.4"/>
<defs>
<linearGradient id="paint0_linear_584_292" x1="320.5" y1="-63" x2="320.5" y2="270.498" gradientUnits="userSpaceOnUse">
<stop offset="0.270833" stop-color="#BFA6E7" stop-opacity="0.83"/>
<stop offset="1" stop-color="#BFA6E7" stop-opacity="0"/>
</linearGradient>
</defs>
</svg>
