<svg width="167" height="168" viewBox="0 0 167 168" fill="none" xmlns="http://www.w3.org/2000/svg">
<circle cx="83" cy="80" r="80" fill="#D9D3ED"/>
<g filter="url(#filter0_d_2057_143)">
<circle cx="83.5" cy="80.5" r="63.5" fill="#9A86E7" fill-opacity="0.2" shape-rendering="crispEdges"/>
<circle cx="83.5" cy="80.5" r="63" stroke="#B8A1CF" stroke-opacity="0.69" shape-rendering="crispEdges"/>
</g>
<path d="M96.5888 73.0018C97.5931 72.1583 99.9457 70.1824 99.9457 65.3965V55.5352H101.067C101.579 55.5352 102 55.0297 102 54.4128L102 53C102 52.3831 101.579 52.001 101.067 52.001H83L64.9326 52.001C64.4192 52.001 64 52.3828 64 52.9998V54.4128C64 55.0299 64.4192 55.5352 64.9326 55.5352H66.0542V65.5752C66.0542 70.3154 67.2537 71.4252 69.375 72.9798L78.5975 79.7403V82.6236C76.2736 84.304 70.2065 88.7024 69.4105 89.3709C68.4062 90.2139 66.0543 92.189 66.0543 96.9763V105.467H64.9327C64.4193 105.467 64.0001 105.972 64.0001 106.589L64 108C64 108.617 64.4193 109 64.9327 109L83 109H101.067C101.58 109 102 108.617 102 108V106.589C102 105.972 101.58 105.467 101.067 105.467H99.9459V96.7962C99.9459 92.0568 98.7457 90.9468 96.6257 89.3923L87.4032 82.6319V79.7483C89.7254 78.0686 95.7927 73.6705 96.5888 73.0018ZM84.8494 85.4921L94.8779 92.843C95.6471 93.4076 96.0581 93.7187 96.2487 94.0799C96.4761 94.5146 96.5871 95.4027 96.5871 96.796V105.467H69.4126V96.9762C69.4126 94.2959 70.5225 93.364 71.3326 92.6835C71.9666 92.1524 77.5463 88.0958 81.1414 85.4989C81.6471 85.1337 81.9563 84.4765 81.9563 83.7662V78.605C81.9563 77.9011 81.6513 77.247 81.1508 76.8806L71.1521 69.5518L71.1218 69.5291C70.3519 68.9651 69.9413 68.654 69.7515 68.2913C69.5239 67.8576 69.4125 66.9686 69.4125 65.5752V55.5354H96.587V65.3966C96.587 68.0759 95.477 69.0086 94.6665 69.6883C94.0331 70.2204 88.4541 74.2768 84.8587 76.8737C84.3531 77.2389 84.0439 77.8963 84.0439 78.6051V83.7663C84.044 84.4715 84.3491 85.1251 84.8494 85.4921Z" fill="white"/>
<path d="M72.194 68.4041C72.194 68.4041 71.5894 67.8763 72.514 68.0271C74.7054 68.383 78.5792 69.7563 83.0355 69.7563C87.4919 69.7563 89.5487 68.4994 92.4633 68.4647C93.0997 68.4572 93.0868 68.8794 92.3562 69.3093C91.6265 69.7387 85.0693 73.3864 84.1667 73.8891C83.2644 74.3906 82.7478 74.3519 81.7915 73.8891C80.4005 73.2147 72.194 68.4041 72.194 68.4041Z" fill="white"/>
<path d="M92.391 102.164C93.1621 102.874 93.5312 103.388 91.7584 103.388C90.3123 103.388 75.8375 103.388 73.9967 103.388C72.1571 103.388 72.8705 102.765 73.7326 101.944C75.3981 100.357 78.9221 99.251 83.1497 99.251C87.578 99.251 90.6735 100.583 92.391 102.164Z" fill="white"/>
<defs>
<filter id="filter0_d_2057_143" x="0" y="1" width="167" height="167" filterUnits="userSpaceOnUse" color-interpolation-filters="sRGB">
<feFlood flood-opacity="0" result="BackgroundImageFix"/>
<feColorMatrix in="SourceAlpha" type="matrix" values="0 0 0 0 0 0 0 0 0 0 0 0 0 0 0 0 0 0 127 0" result="hardAlpha"/>
<feOffset dy="4"/>
<feGaussianBlur stdDeviation="10"/>
<feComposite in2="hardAlpha" operator="out"/>
<feColorMatrix type="matrix" values="0 0 0 0 0.145098 0 0 0 0 0.027451 0 0 0 0 0.262745 0 0 0 0.4 0"/>
<feBlend mode="normal" in2="BackgroundImageFix" result="effect1_dropShadow_2057_143"/>
<feBlend mode="normal" in="SourceGraphic" in2="effect1_dropShadow_2057_143" result="shape"/>
</filter>
</defs>
</svg>
