<svg width="1440" height="966" viewBox="0 0 1440 966" fill="none" xmlns="http://www.w3.org/2000/svg">
<g clip-path="url(#clip0_5917_418695)">
<path d="M-189.219 335.217C11.1404 264.227 148.759 280.348 238.407 309.416C325.445 337.602 393.649 386.633 452.287 353.475C520.195 315.1 499.664 204.805 578.641 175.812C603.19 166.768 630.289 185.198 675.787 189.784C717.066 193.964 775.757 193.59 926.226 199.699C1063.38 205.316 1087.05 129.687 1278.76 75.6953C1345.91 56.7726 1448.9 36.2152 1585.05 42.6061" stroke="#C2C2C2" stroke-width="1.4" stroke-miterlimit="10"/>
<path d="M-188.297 348.72C-101.266 330.962 -27.9094 319.519 30.0207 311.459C73.1089 305.504 102.72 297.689 139.022 297.571C176.352 297.513 210.712 305.694 239.983 314.687C252.112 318.38 263.851 322.678 275.009 326.769C359.635 357.937 407.585 387.695 460.864 359.921C527.283 325.249 509.213 222.154 582.867 191.316C605.774 181.732 631.2 198.609 673.661 198.845C717.33 199.118 778.939 193.846 923.491 198.553C1024.12 201.721 1068.35 164.41 1162.24 128.578C1195.24 115.992 1233.13 103.915 1280.39 93.4636C1332.52 81.9488 1402.97 70.2161 1493.94 65.5902C1524.58 63.9462 1556.18 63.2047 1588.34 64.0607" stroke="#C2C2C2" stroke-width="1.4" stroke-miterlimit="10"/>
<path d="M-187.33 362.586C-94.0572 355.638 -17.8437 347.086 36.704 336.385C79.58 327.955 99.5347 311.696 137.921 307.432C174.847 303.347 210.975 311.588 241.615 320.412C254.394 324.118 266.498 328.371 277.736 332.359C375.746 366.882 413.493 393.542 469.485 366.731C534.3 335.591 518.897 239.856 587.229 207.172C608.484 196.959 632.522 211.598 671.67 208.259C718.153 204.294 782.337 194.352 920.892 197.76C1019.35 199.807 1069.14 166.998 1162.74 138.704C1197.49 128.218 1235.73 118.97 1282.06 111.505C1335.64 102.775 1405.32 94.5645 1496.85 89.2212C1528.75 87.2373 1560.62 85.7209 1591.58 85.8906" stroke="#C2C2C2" stroke-width="1.4" stroke-miterlimit="10"/>
<path d="M-186.162 378.099C-86.545 382.041 -7.42784 376.002 43.5773 362.866C86.1387 351.882 96.5736 327.532 136.907 318.767C173.27 310.861 211.405 318.855 243.346 327.704C256.672 331.343 269.255 335.722 280.665 339.596C392.32 377.348 419.694 401.024 478.307 375.187C541.315 347.42 528.772 259.114 591.712 224.778C611.314 213.934 634.149 225.572 669.801 219.422C719.418 210.81 785.81 196.983 918.414 198.715C1014.65 200.017 1070.28 171.769 1163.38 150.669C1199.97 142.365 1238.49 136.139 1283.95 131.375C1339.1 125.601 1408 120.822 1500.06 114.578C1533.32 112.335 1565.37 110.055 1595.13 109.447" stroke="#C2C2C2" stroke-width="1.4" stroke-miterlimit="10"/>
<path d="M-184.496 396.883C-78.6378 411.635 3.37181 408.019 50.9482 392.619C93.275 378.977 94.0412 346.833 136.482 333.362C172.326 322.001 212.345 329.485 245.666 338.256C259.55 341.919 272.59 346.242 284.171 350.003C409.267 390.823 426.166 411.436 487.616 386.824C548.804 362.337 539.156 281.734 596.761 245.461C614.814 234.067 636.275 242.077 668.498 233.662C721.284 219.936 789.907 202.407 916.503 202.749C1010.57 203.02 1072.12 179.971 1164.67 165.61C1203.22 159.658 1241.9 156.284 1286.39 154.231C1343.22 151.494 1411.13 149.985 1503.74 142.934C1538.35 140.339 1570.67 137.284 1599.14 136.001" stroke="#C2C2C2" stroke-width="1.4" stroke-miterlimit="10"/>
<path d="M-182.239 421.246C-70.1276 446.899 14.7407 445.433 58.9221 428.042C100.981 411.469 92.3393 372.147 136.671 353.719C172.008 338.993 213.898 345.876 248.599 354.57C263.032 358.165 276.539 362.523 288.211 366.273C426.828 410.059 433.251 427.609 497.459 404.325C556.703 382.856 550.062 310.126 602.254 272.019C618.665 260.087 638.777 263.909 667.639 253.778C723.594 234.196 794.446 213.706 915.035 212.657C1006.94 211.899 1074.47 194.505 1166.32 186.528C1206.74 183.031 1245.79 182.668 1289.2 183.066C1347.63 183.558 1414.61 185.036 1507.78 177.266C1543.63 174.241 1576.26 170.593 1603.61 168.521" stroke="#C2C2C2" stroke-width="1.4" stroke-miterlimit="10"/>
<path d="M-179.933 445.97C-61.4894 482.422 26.124 482.933 67.024 463.724C108.712 444.14 90.7767 397.81 136.885 374.254C171.921 356.323 215.557 362.343 251.547 370.971C266.539 374.59 280.513 378.983 292.356 382.619C444.575 429.269 440.329 443.686 507.408 421.901C564.605 403.371 561.063 338.504 607.943 298.642C622.793 286.068 641.339 285.452 666.885 273.969C725.635 247.745 799.081 224.99 913.672 222.642C1003.4 220.762 1076.94 209.297 1168.16 207.511C1210.58 206.641 1249.8 209.129 1292.21 211.964C1352.27 215.961 1418.37 220.048 1512.11 211.653C1549.3 208.184 1582.12 203.865 1608.27 201.106" stroke="#C2C2C2" stroke-width="1.4" stroke-miterlimit="10"/>
<path d="M-178.045 467.323C-53.3599 514.585 36.896 516.994 74.6171 496.046C115.809 473.188 88.9103 420.274 136.683 391.419C171.438 370.465 216.719 375.541 254.089 384.092C269.628 387.644 284.07 392.071 295.993 395.605C461.893 445.017 446.863 456.131 516.939 436.107C572.158 420.322 571.464 363.532 613.135 321.997C626.332 308.793 643.187 303.475 665.735 290.972C726.61 257.168 803.32 233.086 911.915 229.438C999.477 226.528 1078.97 221.277 1169.51 225.225C1213.76 227.187 1253.32 232.503 1294.8 237.584C1356.41 245.095 1421.73 251.872 1515.94 242.77C1554.38 238.962 1587.49 233.959 1612.45 230.514" stroke="#C2C2C2" stroke-width="1.4" stroke-miterlimit="10"/>
<path d="M-176.831 483.198C-45.8016 541.35 46.8806 545.405 81.5479 522.98C122.141 496.769 86.4953 437.522 135.828 403.287C170.476 379.197 217.229 383.444 255.98 391.917C272.169 395.481 286.976 399.864 299.082 403.375C478.64 455.366 452.827 463.176 525.83 445.108C579.048 431.885 581.407 383.334 617.767 340.044C629.311 326.21 644.191 316.134 664.015 302.577C726.057 260.2 806.965 235.6 909.586 230.835C994.95 226.621 1080.27 228.063 1170.29 237.633C1216.39 242.516 1256.2 250.581 1296.75 257.907C1359.94 269.207 1424.35 278.411 1519.22 268.672C1559.01 264.513 1592.39 258.734 1616.07 254.615" stroke="#C2C2C2" stroke-width="1.4" stroke-miterlimit="10"/>
<path d="M-174.694 505.814C-36.6794 573.296 58.4079 578.073 89.9764 553.807C129.323 523.488 84.7566 458.763 135.013 418.486C183.58 379.529 260.285 401.299 302.075 412.64C495.958 465.09 459.304 469.882 535.076 453.232C602.462 438.449 589.683 373.052 661.192 312.002C775.526 214.277 975.017 212.218 1169.32 242.478C1295.23 262.078 1367.21 301.936 1521.11 283.26C1562.1 278.305 1595.72 271.478 1618.17 266.398" stroke="#C2C2C2" stroke-width="1.4" stroke-miterlimit="10"/>
<path d="M-172.438 524.893C-40.2426 587.996 50.9501 595.754 85.9906 568.837C125.428 538.507 89.1826 476.648 138.688 435.537C187.177 395.2 266.043 414.203 311.7 425.346C349.73 434.742 379.779 443.269 400.73 449.396C504.746 480.029 491.959 480.77 552.79 464.664C617.386 447.538 602.977 381.693 673.137 321.736C692.933 304.94 714.867 291.957 738.575 281.349C815.76 246.833 902.997 247.298 1003.8 255.633C1061.08 260.342 1115.92 257.294 1171.92 259.105C1222.42 260.666 1264.95 267.471 1310.7 275.638C1372.37 286.662 1434.47 293.649 1521.87 281.126C1538.43 278.715 1553.95 276.063 1568.14 273.204C1588.76 269.09 1605.27 264.741 1618.36 261.184" stroke="#C2C2C2" stroke-width="1.4" stroke-miterlimit="10"/>
<path d="M-170.97 539.07C-45.1677 599.163 41.7976 610.962 80.7089 581.623C120.557 551.613 93.2365 492.267 142.435 450.916C191.279 409.702 272.03 426.712 321.428 438.136C361.784 447.616 393.873 456.91 413.604 462.91C522.839 496.05 510.417 496.746 570.179 478.733C632.086 460.086 616.55 393.361 686.228 335.501C706.651 318.536 728.913 306.716 752.733 297.021C832.777 264.654 912.645 278.253 1013.41 292.985C1071.52 301.482 1122.44 289.931 1176.49 284.942C1223.85 280.591 1265.41 282.513 1312.52 289.679C1375.42 299.348 1438.13 305.334 1524.13 291.964C1540.49 289.393 1555.97 286.468 1570.31 283.312C1591.33 278.686 1607.23 273.857 1620.18 269.946" stroke="#C2C2C2" stroke-width="1.4" stroke-miterlimit="10"/>
<path d="M-169.378 554.251C-50.0596 611.345 32.8609 627.162 75.563 595.503C115.718 565.733 97.5174 508.97 146.305 467.299C195.494 425.115 278.05 440.236 331.291 452.02C373.974 461.584 408.114 471.737 426.614 477.518C541.078 513.256 528.92 513.827 587.693 493.806C646.911 473.638 630.441 406.101 699.522 350.167C720.585 333.123 743.164 322.376 767.097 313.593C850.01 283.466 922.521 310.291 1023.22 331.329C1082.18 343.613 1128.94 323.867 1181.28 311.771C1225.42 301.611 1266.18 298.536 1314.64 304.61C1378.76 312.924 1441.99 317.827 1526.77 303.589C1542.92 300.858 1558.38 297.75 1572.96 294.287C1594.39 289.24 1609.67 283.93 1622.48 279.575" stroke="#C2C2C2" stroke-width="1.4" stroke-miterlimit="10"/>
<path d="M-167.708 570.072C-54.874 624.167 23.8992 643.922 70.4833 609.933C110.946 580.403 101.773 526.232 150.334 484.219C199.877 441.158 284.32 454.287 341.209 466.362C386.219 476.011 422.421 487.114 439.679 492.584C559.385 531.011 547.488 531.458 605.273 509.428C661.814 487.829 644.41 419.481 712.803 365.484C734.505 348.362 757.401 338.687 781.457 330.908C867.241 303.022 932.302 343.084 1033.03 370.325C1092.74 386.499 1135.44 358.638 1186.06 339.343C1227.04 323.738 1266.85 315.314 1316.67 320.387C1382.01 327.346 1445.76 331.166 1529.23 316.07C1545.18 313.18 1560.6 309.798 1575.35 306.13C1597.17 300.57 1611.84 294.781 1624.51 290.071" stroke="#C2C2C2" stroke-width="1.4" stroke-miterlimit="10"/>
<path d="M-166.004 586.162C-59.6543 637.257 14.9716 660.95 65.449 624.721C106.219 595.431 106.166 543.843 154.328 501.601C204.215 457.572 290.554 468.799 351.184 481.155C398.429 490.899 436.774 502.85 452.8 508.101C577.667 549.32 566.125 549.63 622.898 525.409C676.773 502.471 658.527 433.301 726.21 381.059C748.55 363.858 771.855 355.244 795.932 348.389C884.609 322.925 942.209 376.133 1042.87 409.589C1103.33 429.653 1142.03 394.042 1190.87 367.093C1228.6 346.236 1267.54 332.177 1318.82 336.329C1385.38 341.933 1449.75 344.751 1531.82 328.809C1547.56 325.758 1562.97 322.194 1577.94 318.127C1600.18 312.146 1614.22 305.786 1626.74 300.631" stroke="#C2C2C2" stroke-width="1.4" stroke-miterlimit="10"/>
<path d="M-164.267 602.531C-64.412 650.535 6.07779 678.258 60.4485 639.79C101.526 610.74 110.501 561.745 158.435 519.16C208.678 474.253 296.902 483.489 361.273 496.125C410.844 505.953 451.149 518.774 466.035 523.795C595.984 567.908 584.978 568.06 640.649 541.659C691.857 517.382 672.677 447.4 739.661 397.004C762.64 379.724 786.274 372.275 810.452 366.24C902.123 343.279 952.173 409.645 1052.83 449.121C1114.07 473.166 1148.95 429.965 1195.8 395.11C1230.51 369.253 1268.37 349.399 1321.01 352.55C1388.79 356.8 1453.67 358.536 1534.52 341.724C1550.06 338.514 1565.43 334.676 1580.56 330.404C1603.2 323.911 1616.53 317.081 1629.01 311.562" stroke="#C2C2C2" stroke-width="1.4" stroke-miterlimit="10"/>
<path d="M-162.506 619.079C-69.1351 664.084 -2.80389 695.653 55.4601 654.946C96.8341 626.044 114.939 579.723 162.464 536.818C213.061 491.034 303.08 498.289 371.282 511.194C423.18 521.106 465.548 534.877 479.1 539.599C614.152 586.789 603.66 586.599 658.229 558.018C706.885 532.574 686.748 461.598 753.022 412.957C776.731 395.587 800.602 389.313 824.882 384.099C919.468 363.744 961.954 443.175 1062.71 488.752C1124.72 516.779 1156 466.147 1200.66 423.226C1232.54 392.529 1269.11 366.721 1323.11 368.87C1392.12 371.765 1457.51 372.419 1537.06 354.841C1552.4 351.471 1567.74 347.45 1583.1 342.78C1606.15 335.865 1618.87 328.556 1631.2 322.591" stroke="#C2C2C2" stroke-width="1.4" stroke-miterlimit="10"/>
<path d="M-160.735 635.719C-73.757 677.714 -11.7781 713.061 50.4929 670.285C92.0719 641.544 119.399 597.885 166.525 554.751C217.558 507.987 309.382 513.352 381.324 526.538C435.549 536.533 479.979 551.255 492.288 555.667C632.274 606.047 622.478 605.494 675.922 574.55C722.025 547.938 701.046 476.14 766.416 429.185C790.775 411.828 815.054 406.614 839.344 402.233C936.936 384.472 971.78 477.071 1072.53 528.578C1135.22 560.688 1163.37 502.662 1205.44 451.537C1234.77 415.875 1269.88 384.226 1325.23 385.375C1395.46 386.915 1461.48 386.566 1539.61 368.051C1554.73 364.429 1570.06 360.226 1585.58 355.35C1609.03 347.923 1621.13 340.134 1633.33 333.815" stroke="#C2C2C2" stroke-width="1.4" stroke-miterlimit="10"/>
<path d="M-157.72 658.692C-76.8598 696.901 -18.5593 735.481 47.1388 689.689C88.7754 660.663 124.629 619.288 171.004 575.321C259.765 491.12 479.653 561.394 505.833 570.86C651.346 623.245 642.315 622.134 694.202 588.326C737.514 560.112 714.666 487.433 778.882 441.639C803.755 423.94 828.249 419.719 852.595 415.795C953.001 399.817 981.241 504.994 1082.78 561.405C1190.29 621.158 1186.33 393.406 1325.91 392.334C1411.25 391.734 1489.45 388.773 1586.35 355.627C1610.18 347.505 1621.56 339.065 1633.5 332.221" stroke="#C2C2C2" stroke-width="1.4" stroke-miterlimit="10"/>
<path d="M-151.574 690.542C-86.1849 719.726 -32.5996 748.604 18.4699 731.477C30.3956 727.508 41.9379 721.177 53.223 712.006C92.2522 680.615 121.326 636.092 167.064 590.721C229.302 528.868 360.889 544.156 444.383 564.627C477.819 572.829 502.963 581.404 515.021 586.032C563.652 604.775 597.424 616.456 624.667 624.772C667.983 637.964 678.59 631.563 711.179 610.32C755.416 581.344 728.47 504.723 791.146 458.47C814.844 441.009 838.882 436.844 863.079 433.216C958.715 419.122 993.779 515.771 1093.64 566.09C1133.25 586.037 1157.4 568.519 1181.09 539.666C1204.05 511.735 1224.55 474.29 1249.53 448.427C1273.03 424.134 1300.38 408.447 1336.13 406.915C1346.91 406.421 1357.33 405.972 1368.13 405.661C1426.46 403.85 1478.51 404.48 1540.74 389.22C1556.84 385.292 1573.18 380.315 1589.86 374.279C1612.57 366.109 1624.02 357.566 1635.47 350.505" stroke="#C2C2C2" stroke-width="1.4" stroke-miterlimit="10"/>
<path d="M-146.934 716.181C-82.2503 744.155 -26.2095 771.156 23.9866 751.45C35.9137 746.739 46.9209 739.826 57.5111 730.278C94.2515 696.853 116.886 649.695 162.432 603.514C225.644 539.04 363.093 554.533 450.744 577.919C483.028 586.541 507.578 595.559 523.579 602.111C569.815 620.963 604.817 633.604 636.913 644.472C682.255 659.822 695.538 655.593 727.316 635.284C772.831 606.151 742.562 525.122 804.166 479.187C826.825 462.316 850.521 458.379 874.603 455.321C965.682 444.104 1006.33 532.655 1103.99 577.873C1142.21 595.582 1166.27 579.558 1191.02 554.094C1216.91 527.377 1239.7 492.798 1262.5 471.002C1287.77 446.77 1314.84 433.34 1347.72 431.05C1358.19 430.316 1368.1 429.558 1378.91 429.247C1437.42 427.414 1485.49 433.35 1547.07 419.56C1563.03 416.019 1579.02 411.179 1595.15 405.21C1616.86 397.255 1628.41 388.701 1639.59 381.674" stroke="#C2C2C2" stroke-width="1.4" stroke-miterlimit="10"/>
<path d="M-142.203 741.814C-78.224 768.578 -19.7388 793.611 29.595 771.417C41.5347 766.057 52.0983 758.549 61.7996 748.555C96.2514 713.096 112.527 663.202 157.881 616.211C221.987 549.218 365.469 564.802 457.095 591.125C488.306 600.065 512.171 609.538 532.114 618.012C576.104 636.678 612.358 650.462 649.229 663.984C696.665 681.299 712.556 679.435 743.431 660.071C790.132 630.791 756.633 545.344 817.153 499.634C838.864 483.344 862.023 479.566 886.184 477.146C972.685 468.623 1018.94 549.35 1114.3 589.387C1151.03 604.779 1175.31 590.58 1200.82 568.264C1229.93 542.819 1255.15 511.369 1275.25 493.331C1302.36 468.965 1329.26 457.964 1359.1 455.03C1369.36 454.045 1378.69 453.081 1389.49 452.769C1448.28 450.902 1492.19 462.168 1553.21 449.836C1569.12 446.672 1584.75 441.877 1600.24 436.077C1621.06 428.326 1632.61 419.772 1643.5 412.687" stroke="#C2C2C2" stroke-width="1.4" stroke-miterlimit="10"/>
<path d="M-137.483 767.356C-74.1175 792.9 -13.3705 815.986 35.2949 791.374C47.2359 785.272 57.3558 777.171 66.1796 766.822C98.3314 729.237 108.282 676.88 153.329 628.908C218.615 559.454 367.914 574.878 463.549 604.413C493.595 613.68 516.867 623.597 540.855 634.074C582.667 652.361 620.014 667.491 661.647 683.576C711.167 702.766 729.677 703.358 759.649 684.938C807.628 655.502 770.817 565.738 830.162 520.266C850.914 504.464 873.64 500.924 897.697 499.166C979.517 493.258 1031.4 566.252 1124.63 601.085C1159.88 614.25 1184.58 601.854 1210.65 582.618C1243.27 558.593 1270.83 530.374 1288.04 515.934C1317.17 491.413 1343.61 482.691 1370.6 479.182C1380.63 477.854 1389.38 476.684 1400.27 476.361C1459.25 474.563 1499.17 491.044 1559.45 480.194C1575.23 477.417 1590.49 472.758 1605.46 467.117C1625.28 459.581 1636.92 451.015 1647.45 443.976" stroke="#C2C2C2" stroke-width="1.4" stroke-miterlimit="10"/>
<path d="M-132.302 796.636C-69.6304 821.061 -6.45034 842.088 41.3529 814.988C53.3065 808.236 62.8801 799.462 71.0089 788.734C100.861 749.025 104.383 694.125 149.33 645.332C215.509 573.36 370.888 588.497 470.543 621.335C499.517 630.92 522.092 641.201 550.045 653.783C589.679 671.689 628.187 687.973 674.617 706.895C726.312 727.947 747.44 730.995 776.51 713.521C825.766 683.927 785.634 589.755 843.906 544.601C863.619 529.39 885.9 525.998 909.944 524.889C987.151 521.402 1044.6 586.948 1135.7 616.486C1169.47 627.426 1194.79 617.083 1221.3 600.664C1257.55 578.322 1287.55 553.323 1301.74 542.128C1332.88 517.45 1358.86 511.009 1382.91 506.935C1392.62 505.276 1400.89 503.98 1411.78 503.566C1471.03 501.734 1506.78 523.453 1566.5 514.153C1582.14 511.763 1597.15 507.229 1611.47 501.667C1630.3 494.346 1642.03 485.769 1652.28 478.672" stroke="#C2C2C2" stroke-width="1.4" stroke-miterlimit="10"/>
<path d="M-126.931 828.211C-64.9639 851.425 0.557982 870.404 47.6015 840.897C59.5564 833.404 68.6864 824.035 75.9376 812.953C103.296 771.05 100.573 713.584 145.327 663.981C212.378 589.307 373.848 604.251 477.442 640.494C505.333 650.305 527.302 660.938 559.141 675.728C596.677 693.151 636.267 710.692 687.493 732.45C741.363 755.365 765.029 760.972 793.185 744.351C843.81 714.589 800.264 616.021 857.453 571.092C876.218 556.462 898.042 553.125 921.994 552.769C994.578 551.611 1057.52 609.812 1146.57 634.044C1178.88 642.849 1204.82 634.56 1231.67 620.878C1271.68 600.482 1306.01 580.599 1315.06 570.592C1352.6 552.631 1373.73 541.414 1394.95 536.948C1404.43 534.946 1412.12 533.444 1423.01 533.121C1482.45 531.266 1514.13 558.303 1573.28 550.37C1588.77 548.277 1603.43 543.97 1617.21 538.476C1635.05 531.37 1646.96 522.77 1656.84 515.718" stroke="#C2C2C2" stroke-width="1.4" stroke-miterlimit="10"/>
<path d="M-121.469 859.773C-60.2069 881.778 7.6455 898.617 54.0318 866.782C65.9881 858.548 74.5831 848.597 81.0481 837.148C106.004 793.04 96.9445 733.02 141.597 682.595C209.634 605.392 377.24 619.765 484.706 659.607C511.593 669.542 532.957 680.528 568.681 697.526C604.109 714.375 644.882 733.252 700.721 757.869C756.755 782.555 782.961 790.721 810.225 775.137C862.139 745.308 815.271 642.332 871.375 597.63C889.193 583.579 910.469 580.31 934.419 580.695C1002.28 581.787 1070.83 632.905 1157.73 651.66C1188.46 658.249 1215.25 652.356 1242.41 641.139C1286.21 622.961 1322.73 605.773 1328.75 599.011C1368.92 582.115 1389.05 571.763 1407.27 567.017C1416.51 564.582 1423.63 562.964 1434.52 562.642C1494.14 560.765 1521.84 593.109 1580.34 586.645C1595.78 584.928 1610.09 580.758 1623.23 575.342C1640.08 568.451 1652.09 559.931 1661.58 552.741" stroke="#C2C2C2" stroke-width="1.4" stroke-miterlimit="10"/>
<path d="M-116.017 891.246C-55.4597 912.041 14.7233 926.74 60.3611 892.59C72.2275 883.625 80.3788 873.08 86.1488 861.254C108.52 814.963 93.4087 752.447 137.778 701.223C206.698 621.411 380.624 635.19 491.801 678.836C517.603 688.997 538.522 700.13 577.971 719.541C611.301 735.907 653.235 755.938 713.78 783.403C771.978 809.861 800.824 820.666 827.174 805.935C880.389 776.131 830.176 668.566 885.105 624.101C901.873 610.549 922.784 607.326 946.744 608.543C1010.05 611.77 1083.96 656.022 1168.87 669.186C1198.15 673.731 1225.61 670.257 1253.05 661.32C1300.79 645.807 1339.43 630.767 1342.34 627.351C1385.14 611.52 1404.06 601.873 1419.57 596.906C1428.48 594.049 1435.13 592.396 1446.02 592.073C1505.93 590.254 1529.45 627.835 1587.3 622.842C1602.61 621.513 1616.56 617.478 1629.15 612.13C1645.01 605.453 1657.11 596.923 1666.33 589.767" stroke="#C2C2C2" stroke-width="1.4" stroke-miterlimit="10"/>
<path d="M-110.691 921.711C-50.8382 941.296 21.5953 953.958 66.5647 917.389C125.675 869.259 78.4777 783.924 133.821 718.752C203.727 636.409 383.927 649.231 498.838 696.863C541.506 714.581 571.212 735.377 726.794 807.827C787.235 835.953 818.551 849.511 843.987 835.633C898.593 805.844 844.853 693.711 898.801 649.552C966.547 594.06 1118.89 715.447 1263.56 680.494C1315.2 668.021 1355.91 654.763 1355.91 654.763C1432.07 630.007 1430.55 621.395 1457.4 620.497C1517.48 618.655 1537.02 661.452 1594.23 658.02C1628.34 655.948 1654.94 638.686 1670.95 625.784" stroke="#C2C2C2" stroke-width="1.4" stroke-miterlimit="10"/>
</g>
<defs>
<clipPath id="clip0_5917_418695">
<rect width="1440" height="966" fill="white"/>
</clipPath>
</defs>
</svg>
