<svg width="305" height="125" viewBox="0 0 305 125" fill="none" xmlns="http://www.w3.org/2000/svg">
<mask id="mask0_5_17" style="mask-type:alpha" maskUnits="userSpaceOnUse" x="4" y="26" width="283" height="67">
<path d="M11.76 39.92C9.688 39.92 7.952 39.276 6.552 37.988C5.208 36.644 4.536 34.992 4.536 33.032C4.536 31.072 5.208 29.448 6.552 28.16C7.952 26.816 9.688 26.144 11.76 26.144C13.832 26.144 15.54 26.816 16.884 28.16C18.284 29.448 18.984 31.072 18.984 33.032C18.984 34.992 18.284 36.644 16.884 37.988C15.54 39.276 13.832 39.92 11.76 39.92ZM17.556 45.464V92H5.796V45.464H17.556ZM69.0749 33.368V42.86H53.4509V92H41.6909V42.86H26.0669V33.368H69.0749ZM120.915 67.724C120.915 69.404 120.803 70.916 120.579 72.26H86.5594C86.8394 75.62 88.0154 78.252 90.0874 80.156C92.1594 82.06 94.7074 83.012 97.7314 83.012C102.099 83.012 105.207 81.136 107.055 77.384H119.739C118.395 81.864 115.819 85.56 112.011 88.472C108.203 91.328 103.527 92.756 97.9834 92.756C93.5034 92.756 89.4714 91.776 85.8874 89.816C82.3594 87.8 79.5874 84.972 77.5714 81.332C75.6114 77.692 74.6314 73.492 74.6314 68.732C74.6314 63.916 75.6114 59.688 77.5714 56.048C79.5314 52.408 82.2754 49.608 85.8034 47.648C89.3314 45.688 93.3914 44.708 97.9834 44.708C102.407 44.708 106.355 45.66 109.827 47.564C113.355 49.468 116.071 52.184 117.975 55.712C119.935 59.184 120.915 63.188 120.915 67.724ZM108.735 64.364C108.679 61.34 107.587 58.932 105.459 57.14C103.331 55.292 100.727 54.368 97.6474 54.368C94.7354 54.368 92.2714 55.264 90.2554 57.056C88.2954 58.792 87.0914 61.228 86.6434 64.364H108.735ZM126.475 68.564C126.475 63.86 127.399 59.688 129.247 56.048C131.151 52.408 133.699 49.608 136.891 47.648C140.139 45.688 143.751 44.708 147.727 44.708C151.199 44.708 154.223 45.408 156.799 46.808C159.431 48.208 161.531 49.972 163.099 52.1V45.464H174.943V92H163.099V85.196C161.587 87.38 159.487 89.2 156.799 90.656C154.167 92.056 151.115 92.756 147.643 92.756C143.723 92.756 140.139 91.748 136.891 89.732C133.699 87.716 131.151 84.888 129.247 81.248C127.399 77.552 126.475 73.324 126.475 68.564ZM163.099 68.732C163.099 65.876 162.539 63.44 161.419 61.424C160.299 59.352 158.787 57.784 156.883 56.72C154.979 55.6 152.935 55.04 150.751 55.04C148.567 55.04 146.551 55.572 144.703 56.636C142.855 57.7 141.343 59.268 140.167 61.34C139.047 63.356 138.487 65.764 138.487 68.564C138.487 71.364 139.047 73.828 140.167 75.956C141.343 78.028 142.855 79.624 144.703 80.744C146.607 81.864 148.623 82.424 150.751 82.424C152.935 82.424 154.979 81.892 156.883 80.828C158.787 79.708 160.299 78.14 161.419 76.124C162.539 74.052 163.099 71.588 163.099 68.732ZM244.221 44.792C249.933 44.792 254.525 46.556 257.997 50.084C261.525 53.556 263.289 58.428 263.289 64.7V92H251.529V66.296C251.529 62.656 250.605 59.884 248.757 57.98C246.909 56.02 244.389 55.04 241.197 55.04C238.005 55.04 235.457 56.02 233.553 57.98C231.705 59.884 230.781 62.656 230.781 66.296V92H219.021V66.296C219.021 62.656 218.097 59.884 216.249 57.98C214.401 56.02 211.881 55.04 208.689 55.04C205.441 55.04 202.865 56.02 200.961 57.98C199.113 59.884 198.189 62.656 198.189 66.296V92H186.429V45.464H198.189V51.092C199.701 49.132 201.633 47.592 203.985 46.472C206.393 45.352 209.025 44.792 211.881 44.792C215.521 44.792 218.769 45.576 221.625 47.144C224.481 48.656 226.693 50.84 228.261 53.696C229.773 51.008 231.957 48.852 234.813 47.228C237.725 45.604 240.861 44.792 244.221 44.792ZM279.656 92.588C277.528 92.588 275.764 91.944 274.364 90.656C273.02 89.312 272.348 87.66 272.348 85.7C272.348 83.74 273.02 82.116 274.364 80.828C275.764 79.484 277.528 78.812 279.656 78.812C281.728 78.812 283.436 79.484 284.78 80.828C286.124 82.116 286.796 83.74 286.796 85.7C286.796 87.66 286.124 89.312 284.78 90.656C283.436 91.944 281.728 92.588 279.656 92.588Z" fill="url(#paint0_linear_5_17)"/>
</mask>
<g mask="url(#mask0_5_17)">
<path d="M11.76 39.92C9.688 39.92 7.952 39.276 6.552 37.988C5.208 36.644 4.536 34.992 4.536 33.032C4.536 31.072 5.208 29.448 6.552 28.16C7.952 26.816 9.688 26.144 11.76 26.144C13.832 26.144 15.54 26.816 16.884 28.16C18.284 29.448 18.984 31.072 18.984 33.032C18.984 34.992 18.284 36.644 16.884 37.988C15.54 39.276 13.832 39.92 11.76 39.92ZM17.556 45.464V92H5.796V45.464H17.556ZM69.0749 33.368V42.86H53.4509V92H41.6909V42.86H26.0669V33.368H69.0749ZM120.915 67.724C120.915 69.404 120.803 70.916 120.579 72.26H86.5594C86.8394 75.62 88.0154 78.252 90.0874 80.156C92.1594 82.06 94.7074 83.012 97.7314 83.012C102.099 83.012 105.207 81.136 107.055 77.384H119.739C118.395 81.864 115.819 85.56 112.011 88.472C108.203 91.328 103.527 92.756 97.9834 92.756C93.5034 92.756 89.4714 91.776 85.8874 89.816C82.3594 87.8 79.5874 84.972 77.5714 81.332C75.6114 77.692 74.6314 73.492 74.6314 68.732C74.6314 63.916 75.6114 59.688 77.5714 56.048C79.5314 52.408 82.2754 49.608 85.8034 47.648C89.3314 45.688 93.3914 44.708 97.9834 44.708C102.407 44.708 106.355 45.66 109.827 47.564C113.355 49.468 116.071 52.184 117.975 55.712C119.935 59.184 120.915 63.188 120.915 67.724ZM108.735 64.364C108.679 61.34 107.587 58.932 105.459 57.14C103.331 55.292 100.727 54.368 97.6474 54.368C94.7354 54.368 92.2714 55.264 90.2554 57.056C88.2954 58.792 87.0914 61.228 86.6434 64.364H108.735ZM126.475 68.564C126.475 63.86 127.399 59.688 129.247 56.048C131.151 52.408 133.699 49.608 136.891 47.648C140.139 45.688 143.751 44.708 147.727 44.708C151.199 44.708 154.223 45.408 156.799 46.808C159.431 48.208 161.531 49.972 163.099 52.1V45.464H174.943V92H163.099V85.196C161.587 87.38 159.487 89.2 156.799 90.656C154.167 92.056 151.115 92.756 147.643 92.756C143.723 92.756 140.139 91.748 136.891 89.732C133.699 87.716 131.151 84.888 129.247 81.248C127.399 77.552 126.475 73.324 126.475 68.564ZM163.099 68.732C163.099 65.876 162.539 63.44 161.419 61.424C160.299 59.352 158.787 57.784 156.883 56.72C154.979 55.6 152.935 55.04 150.751 55.04C148.567 55.04 146.551 55.572 144.703 56.636C142.855 57.7 141.343 59.268 140.167 61.34C139.047 63.356 138.487 65.764 138.487 68.564C138.487 71.364 139.047 73.828 140.167 75.956C141.343 78.028 142.855 79.624 144.703 80.744C146.607 81.864 148.623 82.424 150.751 82.424C152.935 82.424 154.979 81.892 156.883 80.828C158.787 79.708 160.299 78.14 161.419 76.124C162.539 74.052 163.099 71.588 163.099 68.732ZM244.221 44.792C249.933 44.792 254.525 46.556 257.997 50.084C261.525 53.556 263.289 58.428 263.289 64.7V92H251.529V66.296C251.529 62.656 250.605 59.884 248.757 57.98C246.909 56.02 244.389 55.04 241.197 55.04C238.005 55.04 235.457 56.02 233.553 57.98C231.705 59.884 230.781 62.656 230.781 66.296V92H219.021V66.296C219.021 62.656 218.097 59.884 216.249 57.98C214.401 56.02 211.881 55.04 208.689 55.04C205.441 55.04 202.865 56.02 200.961 57.98C199.113 59.884 198.189 62.656 198.189 66.296V92H186.429V45.464H198.189V51.092C199.701 49.132 201.633 47.592 203.985 46.472C206.393 45.352 209.025 44.792 211.881 44.792C215.521 44.792 218.769 45.576 221.625 47.144C224.481 48.656 226.693 50.84 228.261 53.696C229.773 51.008 231.957 48.852 234.813 47.228C237.725 45.604 240.861 44.792 244.221 44.792ZM279.656 92.588C277.528 92.588 275.764 91.944 274.364 90.656C273.02 89.312 272.348 87.66 272.348 85.7C272.348 83.74 273.02 82.116 274.364 80.828C275.764 79.484 277.528 78.812 279.656 78.812C281.728 78.812 283.436 79.484 284.78 80.828C286.124 82.116 286.796 83.74 286.796 85.7C286.796 87.66 286.124 89.312 284.78 90.656C283.436 91.944 281.728 92.588 279.656 92.588Z" fill="url(#paint1_linear_5_17)"/>
</g>
<defs>
<linearGradient id="paint0_linear_5_17" x1="9.5" y1="32" x2="297.5" y2="92" gradientUnits="userSpaceOnUse">
<stop offset="0.307292" stop-color="#5C34B0"/>
<stop offset="1" stop-color="#5C34B0" stop-opacity="0.17"/>
</linearGradient>
<linearGradient id="paint1_linear_5_17" x1="152.5" y1="0" x2="152.5" y2="125" gradientUnits="userSpaceOnUse">
<stop stop-color="#EBDCFD"/>
<stop offset="1" stop-color="#EBDCFD" stop-opacity="0"/>
</linearGradient>
</defs>
</svg>
