<?xml version="1.0" encoding="UTF-8" standalone="no" ?>
<!DOCTYPE svg PUBLIC "-//W3C//DTD SVG 1.1//EN" "http://www.w3.org/Graphics/SVG/1.1/DTD/svg11.dtd">
<svg xmlns="http://www.w3.org/2000/svg" xmlns:xlink="http://www.w3.org/1999/xlink" version="1.1" width="1080" height="1080" viewBox="0 0 1080 1080" xml:space="preserve">
<desc>Created with Fabric.js 5.2.4</desc>
<defs>
</defs>
<g transform="matrix(1 0 0 1 540 540)" id="c0643e69-dff8-43cc-8aae-19562cdf6b0f"  >
<rect style="stroke: none; stroke-width: 1; stroke-dasharray: none; stroke-linecap: butt; stroke-dashoffset: 0; stroke-linejoin: miter; stroke-miterlimit: 4; fill: rgb(255,255,255); fill-rule: nonzero; opacity: 1; visibility: hidden;" vector-effect="non-scaling-stroke"  x="-540" y="-540" rx="0" ry="0" width="1080" height="1080" />
</g>
<g transform="matrix(1 0 0 1 540 540)" id="dd25f9c5-0925-4ee4-b706-a71950729e92"  >
</g>
<g transform="matrix(10.59 0 0 10.59 540 540)"  >
<g style=""   >
		<g transform="matrix(1 0 0 1 -32.57 2.83)"  >
<path style="stroke: none; stroke-width: 1; stroke-dasharray: none; stroke-linecap: butt; stroke-dashoffset: 0; stroke-linejoin: miter; stroke-miterlimit: 4; fill: rgb(20,168,0); fill-rule: nonzero; opacity: 1;" vector-effect="non-scaling-stroke"  transform=" translate(-18.43, -16.83)" d="M 28.18 19.06 C 26.058812747016866 18.94188712873452 24.127167722527947 17.800799527395505 23 16 C 23.67 10.66 25.62 9 28.2 9 C 30.779999999999998 9 32.74 11 32.74 14 C 32.74 17 30.740000000000002 19 28.200000000000003 19 M 28.200000000000003 5.66 C 24.442270859282154 5.507728276935623 21.1149050112533 8.06853642326669 20.300000000000004 11.740000000000002 C 19.444007011769717 9.946579296441733 18.796445648903507 8.060934291618889 18.370000000000005 6.119999999999999 L 12 6.12 L 12 14.02 C 12 16.89 10.7 19.02 8.15 19.02 C 5.600000000000001 19.02 4.15 16.9 4.15 14.02 L 4.15 6.119999999999999 L 0.49 6.119999999999999 L 0.49 14.02 C 0.406935250063659 16.20917962218412 1.1614951225608556 18.347695279782812 2.5999999999999996 20 C 4.020562636577939 21.54673825995009 6.040589718676589 22.403608953620093 8.140000000000002 22.35 C 12.55 22.35 15.64 18.96 15.64 14.110000000000001 L 15.64 8.77 C 16.38894628302204 11.643503797417527 17.62702996505108 14.366611349421287 19.300000000000004 16.820000000000007 L 17.34 28 L 21.06 28 L 22.349999999999998 20.08 C 22.777049435697595 20.44767719362144 23.231721235535158 20.781994693502 23.709999999999994 21.08 C 24.95271191097545 21.864862531879186 26.381163439541957 22.306509381291054 27.849999999999994 22.36 L 28.189999999999998 22.36 C 30.397916322258613 22.38294938902785 32.51950735861752 21.503550421251283 34.06374149747825 19.92533558006843 C 35.60797563633898 18.347120738885582 36.44099448277227 16.206893958478446 36.37 14 C 36.42154349861125 11.801516170610595 35.57918289583557 9.676137885416509 34.035542724229366 8.10988027539849 C 32.49190255262316 6.543622665380472 30.379000958768835 5.670438208938988 28.179999999999996 5.6899999999999995" stroke-linecap="round" />
</g>
		<g transform="matrix(1 0 0 1 30.73 -0.11)"  >
<path style="stroke: none; stroke-width: 1; stroke-dasharray: none; stroke-linecap: butt; stroke-dashoffset: 0; stroke-linejoin: miter; stroke-miterlimit: 4; fill: rgb(20,168,0); fill-rule: nonzero; opacity: 1;" vector-effect="non-scaling-stroke"  transform=" translate(-81.73, -13.89)" d="M 80.8 7.86 L 80.8 6.18 L 77.2 6.18 L 77.2 21.81 L 80.85000000000001 21.81 L 80.85000000000001 15.69 C 80.85000000000001 11.92 81.19000000000001 9.209999999999999 86.25000000000001 9.559999999999999 L 86.25000000000001 6 C 83.89000000000001 5.82 82.05000000000001 6.31 80.80000000000001 7.87" stroke-linecap="round" />
</g>
		<g transform="matrix(1 0 0 1 -3.17 0)"  >
<polygon style="stroke: none; stroke-width: 1; stroke-dasharray: none; stroke-linecap: butt; stroke-dashoffset: 0; stroke-linejoin: miter; stroke-miterlimit: 4; fill: rgb(20,168,0); fill-rule: nonzero; opacity: 1;" vector-effect="non-scaling-stroke"  points="7.68,-7.83 5.04,3.11 2.22,-7.83 -2.42,-7.83 -5.24,3.11 -7.88,-7.83 -11.57,-7.83 -7.52,7.82 -3.14,7.82 -0.1,-3.29 2.91,7.82 7.29,7.82 11.57,-7.83 7.68,-7.83 " />
</g>
		<g transform="matrix(1 0 0 1 16.42 0.06)"  >
<path style="stroke: none; stroke-width: 1; stroke-dasharray: none; stroke-linecap: butt; stroke-dashoffset: 0; stroke-linejoin: miter; stroke-miterlimit: 4; fill: rgb(20,168,0); fill-rule: nonzero; opacity: 1;" vector-effect="non-scaling-stroke"  transform=" translate(-67.42, -14.06)" d="M 67.42 19.07 C 64.83 19.07 62.89 17.02 62.89 14.07 C 62.89 11.120000000000001 64.89 9.07 67.42 9.07 C 69.95 9.07 72 11 72 14 C 72 17 70 19 67.46 19 M 67.46 5.65 C 65.24870035029149 5.618906679840515 63.12084010262048 6.493315276224541 61.57033632310299 8.070258827865347 C 60.01983254358551 9.647202379506153 59.18152467169031 11.789542114227823 59.25 14.000000000000002 C 59.14544987893722 16.98883558290058 60.68032578799931 19.79648400779103 63.252712359044175 21.321900737257096 C 65.82509893008904 22.84731746672316 69.02490106991097 22.847317466723158 71.59728764095583 21.321900737257092 C 74.16967421200069 19.796484007791026 75.70455012106278 16.988835582900577 75.6 13.999999999999998 C 75.6542977538454 11.802456111162895 74.81421076189152 9.677004099521461 73.27214023487797 8.110426339193518 C 71.73006970786442 6.543848578865575 69.61812681505307 5.670355805372642 67.41999999999999 5.6899999999999995" stroke-linecap="round" />
</g>
		<g transform="matrix(1 0 0 1 43.66 -3.09)"  >
<path style="stroke: none; stroke-width: 1; stroke-dasharray: none; stroke-linecap: butt; stroke-dashoffset: 0; stroke-linejoin: miter; stroke-miterlimit: 4; fill: rgb(20,168,0); fill-rule: nonzero; opacity: 1;" vector-effect="non-scaling-stroke"  transform=" translate(-94.66, -10.91)" d="M 91.47 14.13 L 92.31 14.13 L 97.4 21.82 L 101.51 21.82 L 95.66000000000001 13.290000000000001 C 98.53795859404477 12.10334015466677 100.41152883278654 9.2929847965541 100.4 6.18 L 96.77 6.180000000000001 C 96.77 9.55 94.11 10.830000000000002 91.47 10.830000000000002 L 91.47 0 L 87.82 0 L 87.82 21.82 L 91.46 21.82 Z" stroke-linecap="round" />
</g>
</g>
</g>
</svg>