<svg width="18" height="18" viewBox="0 0 18 18" fill="none" xmlns="http://www.w3.org/2000/svg">
<path fill-rule="evenodd" clip-rule="evenodd" d="M0.75 9C0.75 4.44525 4.41752 0.75 9 0.75C11.7202 0.75 13.7583 1.87522 15.1023 2.98397C15.339 3.17929 15.5549 3.37459 15.75 3.56389V3C15.75 2.58579 16.0858 2.25 16.5 2.25C16.9142 2.25 17.25 2.58579 17.25 3V5.625C17.25 6.03921 16.9142 6.375 16.5 6.375H13.875C13.4608 6.375 13.125 6.03921 13.125 5.625C13.125 5.21079 13.4608 4.875 13.875 4.875H14.9388C14.7151 4.64201 14.4513 4.39149 14.1477 4.14103C12.9917 3.18728 11.2798 2.25 9 2.25C5.24915 2.25 2.25 5.27048 2.25 9C2.25 9.41421 1.91421 9.75 1.5 9.75C1.08579 9.75 0.75 9.41421 0.75 9ZM15.8595 6.01522C15.8597 6.01546 15.8597 6.01545 15.8595 6.01521L15.8595 6.01522ZM16.5 8.25C16.9142 8.25 17.25 8.58579 17.25 9C17.25 13.5563 13.5563 17.25 9 17.25C6.67318 17.25 4.8153 16.0929 3.57572 15.0001C3.3682 14.8171 3.1761 14.6344 3 14.4567V15C3 15.4142 2.66421 15.75 2.25 15.75C1.83579 15.75 1.5 15.4142 1.5 15V12.375C1.5 11.9608 1.83579 11.625 2.25 11.625H4.875C5.28921 11.625 5.625 11.9608 5.625 12.375C5.625 12.7892 5.28921 13.125 4.875 13.125H3.80154C4.02141 13.3631 4.27768 13.6192 4.56768 13.8749C5.66756 14.8446 7.18468 15.75 9 15.75C12.7279 15.75 15.75 12.7279 15.75 9C15.75 8.58579 16.0858 8.25 16.5 8.25Z" fill="black"/>
</svg>
