<svg width="24" height="24" viewBox="0 0 24 24" fill="none" xmlns="http://www.w3.org/2000/svg">
<path d="M22.8335 17.3304V20.5804C22.8348 20.8821 22.773 21.1808 22.6521 21.4572C22.5312 21.7337 22.354 21.9818 22.1316 22.1858C21.9093 22.3898 21.6468 22.545 21.361 22.6417C21.0752 22.7384 20.7724 22.7743 20.4719 22.7471C17.1383 22.3849 13.9361 21.2458 11.1227 19.4213C8.50519 17.758 6.28599 15.5388 4.62271 12.9213C2.79186 10.0951 1.65248 6.87734 1.29688 3.52876C1.26981 3.22919 1.30541 2.92725 1.40142 2.64219C1.49743 2.35713 1.65175 2.09518 1.85454 1.87302C2.05734 1.65086 2.30417 1.47337 2.57932 1.35183C2.85447 1.23029 3.15191 1.16738 3.45271 1.1671H6.70271C7.22846 1.16192 7.73815 1.3481 8.13679 1.69092C8.53542 2.03375 8.7958 2.50983 8.86938 3.03043C9.00655 4.0705 9.26095 5.09172 9.62771 6.0746C9.77347 6.46235 9.80501 6.88375 9.71861 7.28888C9.63221 7.69401 9.43148 8.06588 9.14021 8.36043L7.76438 9.73626C9.30656 12.4484 11.5522 14.6941 14.2644 16.2363L15.6402 14.8604C15.9348 14.5692 16.3066 14.3684 16.7118 14.282C17.1169 14.1956 17.5383 14.2272 17.926 14.3729C18.9089 14.7397 19.9301 14.9941 20.9702 15.1313C21.4965 15.2055 21.9771 15.4706 22.3206 15.8761C22.6642 16.2815 22.8467 16.7991 22.8335 17.3304Z" stroke="#17092D" stroke-width="2" stroke-linecap="round" stroke-linejoin="round"/>
</svg>
