<svg width="92" height="30" viewBox="0 0 92 30" fill="none" xmlns="http://www.w3.org/2000/svg">
<line x1="0.00274715" y1="28.5" x2="91.0047" y2="29" stroke="#250743"/>
<g clip-path="url(#clip0_9_6)">
<path d="M20.2915 15.3133L20.2268 15.6148L20.4671 15.8079C21.7853 16.8676 23.2782 17.552 24.9038 17.552C27.1686 17.552 29.0197 15.7175 29.0274 13.462V13.4603C29.0274 11.1966 27.1748 9.36205 24.9038 9.36205C23.3794 9.36205 22.3554 10.1056 21.6964 11.0409C21.0567 11.9489 20.7546 13.0406 20.6112 13.831L20.6021 13.8674L20.5999 13.876L20.5981 13.8846L20.2915 15.3133ZM17.3746 12.3038L17.9667 13.1856L18.269 12.1674C19.2897 8.73013 21.7583 6.71758 24.9038 6.71758C28.6478 6.71758 31.6909 9.74492 31.6909 13.4471C31.6909 17.158 28.6456 20.2032 24.9036 20.2032C23.1322 20.2032 21.5853 19.6682 20.2291 18.8061L19.6223 18.4203L19.472 19.1235L17.9313 26.3279H15.2038L17.3191 16.4556L17.3689 16.2236L17.2206 16.0384C16.1909 14.7523 15.3372 13.2984 14.636 11.8472L13.6858 12.0648V13.6521C13.6858 17.2513 10.7331 20.2097 7.10481 20.2097C3.47634 20.2097 0.524965 17.2513 0.537338 13.6538V13.6521V4.68694H3.20134V13.6521C3.20134 15.7969 4.96045 17.5386 7.11174 17.5386C9.263 17.5386 11.0223 15.7969 11.0223 13.6521V4.68694H13.8145C14.5635 7.11418 15.7809 9.93011 17.3746 12.3038Z" stroke="#250743"/>
<path d="M43.375 6.62771L45.7397 16.0929L48.3444 6.62771H51.4484L47.4451 20.3063H44.3409L41.8831 10.7815L39.4317 20.2996H36.3276L32.324 6.62118H35.4282L38.0327 16.0864L40.3974 6.62118H43.3749V6.62789L43.375 6.62771ZM58.8756 6.21759C54.8456 6.21759 51.5817 9.46518 51.5817 13.4603C51.5817 17.4621 54.8522 20.7032 58.8756 20.7032C62.9057 20.7032 66.1762 17.4621 66.1762 13.4603C66.1762 9.45865 62.9057 6.21759 58.8756 6.21759ZM58.8756 17.7267C56.5043 17.7267 54.5858 15.8217 54.5858 13.467C54.5858 11.1122 56.5109 9.20736 58.8756 9.20736C61.247 9.20736 63.1653 11.1122 63.1653 13.467C63.1653 15.8151 61.247 17.7267 58.8756 17.7267ZM75.0422 9.69018C72.9574 9.69018 71.2721 11.3702 71.2721 13.4338V20.2996H68.1478V6.62771H71.2721V8.73106C71.2721 8.73106 72.6042 6.621 75.342 6.621H76.3011V9.69018H75.0422ZM85.527 12.9312C87.7449 11.6877 89.2505 9.3263 89.2505 6.621H86.1262C86.1262 8.90294 84.2613 10.755 81.9632 10.755H81.5434V0.026474H78.4195V20.2994H81.5434V13.8572H81.9166C82.223 13.8572 82.6227 14.0557 82.8026 14.3003L87.2388 20.2996H90.9824L85.527 12.9312Z" fill="#250743"/>
</g>
<defs>
<clipPath id="clip0_9_6">
<rect width="91" height="27" fill="white"/>
</clipPath>
</defs>
</svg>
