<?xml version="1.0" standalone="no"?>
<!DOCTYPE svg PUBLIC "-//W3C//DTD SVG 20010904//EN"
 "http://www.w3.org/TR/2001/REC-SVG-20010904/DTD/svg10.dtd">
<svg version="1.0" xmlns="http://www.w3.org/2000/svg"
 width="1280.000000pt" height="1263.000000pt" viewBox="0 0 1280.000000 1263.000000"
 preserveAspectRatio="xMidYMid meet">
<metadata>
Created by potrace 1.16, written by Peter Selinger 2001-2019
</metadata>
<g transform="translate(0.000000,1263.000000) scale(0.100000,-0.100000)"
fill="#000000" stroke="none">
<path d="M4150 9154 c-775 -46 -1231 -228 -1507 -601 -288 -388 -310 -863 -63
-1381 146 -305 321 -560 786 -1142 275 -345 443 -569 562 -749 266 -403 440
-619 727 -906 249 -249 514 -468 865 -715 171 -121 349 -253 640 -478 889
-687 1387 -866 2020 -726 780 173 1495 764 2011 1664 550 960 697 2053 388
2891 -182 496 -426 767 -904 1010 -230 116 -430 189 -1140 414 -242 77 -313
103 -715 262 -410 161 -401 158 -630 234 -344 113 -604 173 -895 205 -117 12
-225 15 -490 12 -187 -1 -621 0 -965 3 -344 4 -654 5 -690 3z"/>
</g>
</svg>
