<svg width="16" height="17" viewBox="0 0 16 17" fill="none" xmlns="http://www.w3.org/2000/svg">
<g clip-path="url(#clip0_1_334)">
<path d="M12 2.625H5.33333C3.49238 2.625 2 4.11738 2 5.95833V12.625C2 14.466 3.49238 15.9583 5.33333 15.9583H12C13.841 15.9583 15.3333 14.466 15.3333 12.625V5.95833C15.3333 4.11738 13.841 2.625 12 2.625Z" stroke="#ADB5BD" stroke-width="1.33333" stroke-linecap="round" stroke-linejoin="round"/>
<path d="M10.6667 8.20496C10.7489 8.75979 10.6542 9.32643 10.3958 9.8243C10.1375 10.3222 9.72877 10.7259 9.22776 10.9781C8.72675 11.2302 8.15897 11.318 7.6052 11.2289C7.05143 11.1398 6.53985 10.8783 6.14323 10.4817C5.74662 10.0851 5.48516 9.57354 5.39605 9.01977C5.30694 8.46599 5.39472 7.89822 5.64689 7.39721C5.89907 6.89619 6.3028 6.48745 6.80066 6.22912C7.29853 5.97079 7.86518 5.87602 8.42001 5.95829C8.98596 6.04221 9.50991 6.30593 9.91447 6.71049C10.319 7.11506 10.5828 7.63901 10.6667 8.20496Z" stroke="#ADB5BD" stroke-width="1.33333" stroke-linecap="round" stroke-linejoin="round"/>
<path d="M11.6667 4.95825H11.6733" stroke="#ADB5BD" stroke-width="1.33333" stroke-linecap="round" stroke-linejoin="round"/>
</g>
<defs>
<clipPath id="clip0_1_334">
<rect width="16" height="16" fill="white" transform="translate(0 0.625)"/>
</clipPath>
</defs>
</svg>
