<svg width="16" height="17" viewBox="0 0 16 17" fill="none" xmlns="http://www.w3.org/2000/svg">
<g clip-path="url(#clip0_1_344)">
<path d="M10.6667 5.95825C11.7276 5.95825 12.745 6.37968 13.4951 7.12982C14.2453 7.87997 14.6667 8.89739 14.6667 9.95825V14.6249H12V9.95825C12 9.60463 11.8595 9.26549 11.6095 9.01544C11.3594 8.76539 11.0203 8.62492 10.6667 8.62492C10.3131 8.62492 9.97393 8.76539 9.72388 9.01544C9.47383 9.26549 9.33335 9.60463 9.33335 9.95825V14.6249H6.66669V9.95825C6.66669 8.89739 7.08811 7.87997 7.83826 7.12982C8.58841 6.37968 9.60582 5.95825 10.6667 5.95825Z" stroke="#ADB5BD" stroke-width="1.33333" stroke-linecap="round" stroke-linejoin="round"/>
<path d="M4.66667 9.625H2V17.625H4.66667V9.625Z" stroke="#ADB5BD" stroke-width="1.33333" stroke-linecap="round" stroke-linejoin="round"/>
<path d="M2.66668 4.62492C3.40306 4.62492 4.00001 4.02797 4.00001 3.29159C4.00001 2.55521 3.40306 1.95825 2.66668 1.95825C1.9303 1.95825 1.33334 2.55521 1.33334 3.29159C1.33334 4.02797 1.9303 4.62492 2.66668 4.62492Z" stroke="#ADB5BD" stroke-width="1.33333" stroke-linecap="round" stroke-linejoin="round"/>
</g>
<defs>
<clipPath id="clip0_1_344">
<rect width="16" height="16" fill="white" transform="translate(0 0.625)"/>
</clipPath>
</defs>
</svg>
