<svg width="16" height="17" viewBox="0 0 16 17" fill="none" xmlns="http://www.w3.org/2000/svg">
<g clip-path="url(#clip0_1_340)">
<path d="M15.3333 2.62511C14.6949 3.07543 13.9881 3.41985 13.24 3.64511C12.8385 3.18345 12.3049 2.85624 11.7113 2.70773C11.1178 2.55922 10.493 2.59658 9.92138 2.81475C9.34977 3.03292 8.85895 3.42138 8.51531 3.92759C8.17167 4.4338 7.99179 5.03334 7.99999 5.64511V6.31178C6.82841 6.34216 5.66751 6.08232 4.62066 5.55541C3.57382 5.0285 2.67353 4.25087 1.99999 3.29178C1.99999 3.29178 -0.666677 9.29178 5.33332 11.9584C3.96034 12.8904 2.32476 13.3577 0.666656 13.2918C6.66666 16.6251 14 13.2918 14 5.62511C13.9994 5.43941 13.9815 5.25418 13.9467 5.07178C14.6271 4.40077 15.1072 3.55359 15.3333 2.62511Z" stroke="#ADB5BD" stroke-width="1.33333" stroke-linecap="round" stroke-linejoin="round"/>
</g>
<defs>
<clipPath id="clip0_1_340">
<rect width="16" height="16" fill="white" transform="translate(0 0.625)"/>
</clipPath>
</defs>
</svg>
