<svg width="88" height="88" viewBox="0 0 88 88" fill="none" xmlns="http://www.w3.org/2000/svg">
<g filter="url(#filter0_bd_34_11)">
<g filter="url(#filter1_d_34_11)">
<path d="M24 40C24 28.9543 32.9543 20 44 20V20C55.0457 20 64 28.9543 64 40V40C64 51.0457 55.0457 60 44 60V60C32.9543 60 24 51.0457 24 40V40Z" fill="#F6EEFC"/>
<path d="M44 58.5C33.7827 58.5 25.5 50.2173 25.5 40C25.5 29.7827 33.7827 21.5 44 21.5C54.2173 21.5 62.5 29.7827 62.5 40C62.5 50.2173 54.2173 58.5 44 58.5Z" stroke="url(#paint0_linear_34_11)" stroke-width="3"/>
</g>
</g>
<defs>
<filter id="filter0_bd_34_11" x="-22" y="-26" width="132" height="132" filterUnits="userSpaceOnUse" color-interpolation-filters="sRGB">
<feFlood flood-opacity="0" result="BackgroundImageFix"/>
<feGaussianBlur in="BackgroundImageFix" stdDeviation="23"/>
<feComposite in2="SourceAlpha" operator="in" result="effect1_backgroundBlur_34_11"/>
<feColorMatrix in="SourceAlpha" type="matrix" values="0 0 0 0 0 0 0 0 0 0 0 0 0 0 0 0 0 0 127 0" result="hardAlpha"/>
<feOffset dy="4"/>
<feGaussianBlur stdDeviation="2"/>
<feComposite in2="hardAlpha" operator="out"/>
<feColorMatrix type="matrix" values="0 0 0 0 0 0 0 0 0 0 0 0 0 0 0 0 0 0 0.25 0"/>
<feBlend mode="normal" in2="effect1_backgroundBlur_34_11" result="effect2_dropShadow_34_11"/>
<feBlend mode="normal" in="SourceGraphic" in2="effect2_dropShadow_34_11" result="shape"/>
</filter>
<filter id="filter1_d_34_11" x="0" y="0" width="88" height="88" filterUnits="userSpaceOnUse" color-interpolation-filters="sRGB">
<feFlood flood-opacity="0" result="BackgroundImageFix"/>
<feColorMatrix in="SourceAlpha" type="matrix" values="0 0 0 0 0 0 0 0 0 0 0 0 0 0 0 0 0 0 127 0" result="hardAlpha"/>
<feOffset dy="4"/>
<feGaussianBlur stdDeviation="12"/>
<feComposite in2="hardAlpha" operator="out"/>
<feColorMatrix type="matrix" values="0 0 0 0 0 0 0 0 0 0 0 0 0 0 0 0 0 0 0.2 0"/>
<feBlend mode="normal" in2="BackgroundImageFix" result="effect1_dropShadow_34_11"/>
<feBlend mode="normal" in="SourceGraphic" in2="effect1_dropShadow_34_11" result="shape"/>
</filter>
<linearGradient id="paint0_linear_34_11" x1="29.2303" y1="20" x2="65.538" y2="33.0346" gradientUnits="userSpaceOnUse">
<stop stop-color="white"/>
<stop offset="0.361446" stop-color="#CEBCFF" stop-opacity="0.19"/>
<stop offset="0.712085" stop-color="#B67CFF" stop-opacity="0.18"/>
<stop offset="1" stop-color="#8D47FF" stop-opacity="0.43"/>
</linearGradient>
</defs>
</svg>
